<?xml version="1.0" encoding="UTF-8" standalone="no"?>
<!-- Generator: Adobe Illustrator 16.0.0, SVG Export Plug-In . SVG Version: 6.00 Build 0)  -->

<svg
   xmlns:dc="http://purl.org/dc/elements/1.1/"
   xmlns:cc="http://creativecommons.org/ns#"
   xmlns:rdf="http://www.w3.org/1999/02/22-rdf-syntax-ns#"
   xmlns:svg="http://www.w3.org/2000/svg"
   xmlns="http://www.w3.org/2000/svg"
   xmlns:sodipodi="http://sodipodi.sourceforge.net/DTD/sodipodi-0.dtd"
   xmlns:inkscape="http://www.inkscape.org/namespaces/inkscape"
   version="1.1"
   id="Capa_1"
   x="0px"
   y="0px"
   width="45.958px"
   height="45.958px"
   viewBox="0 0 45.958 45.958"
   style="enable-background:new 0 0 45.958 45.958;"
   xml:space="preserve"
   sodipodi:docname="good-list.svg"
   inkscape:version="0.92.4 (5da689c313, 2019-01-14)"><metadata
   id="metadata41"><rdf:RDF><cc:Work
       rdf:about=""><dc:format>image/svg+xml</dc:format><dc:type
         rdf:resource="http://purl.org/dc/dcmitype/StillImage" /></cc:Work></rdf:RDF></metadata><defs
   id="defs39" /><sodipodi:namedview
   pagecolor="#ffffff"
   bordercolor="#666666"
   borderopacity="1"
   objecttolerance="10"
   gridtolerance="10"
   guidetolerance="10"
   inkscape:pageopacity="0"
   inkscape:pageshadow="2"
   inkscape:window-width="1920"
   inkscape:window-height="1027"
   id="namedview37"
   showgrid="false"
   inkscape:zoom="5.1351234"
   inkscape:cx="22.979"
   inkscape:cy="22.979"
   inkscape:window-x="1912"
   inkscape:window-y="-8"
   inkscape:window-maximized="1"
   inkscape:current-layer="Capa_1" />
<g
   id="g4">
	<path
   d="M 22.979,0 C 10.288,0 0,10.289 0,22.979 c 0,12.69 10.288,22.979 22.979,22.979 12.69,0 22.979,-10.289 22.979,-22.979 C 45.958,10.289 35.67,0 22.979,0 Z m 9.274,26.977 h -5.301 v 5.289 c 0,2.207 -1.765,3.996 -3.972,3.996 -2.206,0 -3.971,-1.789 -3.971,-3.996 V 26.975 H 13.71 c -2.207,0 -4.006,-1.789 -4.006,-3.997 0,-2.207 1.796,-3.996 4.003,-3.996 h 5.302 v -5.289 c 0,-2.208 1.765,-3.997 3.971,-3.997 2.208,0 3.972,1.789 3.972,3.997 v 5.29 h 5.301 c 2.207,0 3.997,1.79 3.997,3.997 0,2.208 -1.79,3.997 -3.997,3.997 z"
   id="path2"
   style="fill:#00aa00"
   inkscape:connector-curvature="0" />
</g>
<g
   id="g6">
</g>
<g
   id="g8">
</g>
<g
   id="g10">
</g>
<g
   id="g12">
</g>
<g
   id="g14">
</g>
<g
   id="g16">
</g>
<g
   id="g18">
</g>
<g
   id="g20">
</g>
<g
   id="g22">
</g>
<g
   id="g24">
</g>
<g
   id="g26">
</g>
<g
   id="g28">
</g>
<g
   id="g30">
</g>
<g
   id="g32">
</g>
<g
   id="g34">
</g>
</svg>